{
	"asset":{
		"generator":"Khronos glTF Blender I/O v5.1.20",
		"version":"2.0"
	},
	"extensionsUsed":[
		"KHR_materials_specular",
		"KHR_materials_ior"
	],
	"scene":0,
	"scenes":[
		{
			"name":"Scene",
			"nodes":[
				0
			]
		}
	],
	"nodes":[
		{
			"mesh":0,
			"name":"Earth"
		}
	],
	"materials":[
		{
			"doubleSided":true,
			"extensions":{
				"KHR_materials_specular":{
					"specularTexture":{
						"index":0
					}
				},
				"KHR_materials_ior":{
					"ior":1.4500000476837158
				}
			},
			"name":"Earth.001",
			"normalTexture":{
				"index":1,
				"scale":10
			},
			"pbrMetallicRoughness":{
				"baseColorTexture":{
					"index":2
				},
				"metallicFactor":0,
				"roughnessFactor":0.5
			}
		}
	],
	"meshes":[
		{
			"name":"Sphere.001",
			"primitives":[
				{
					"attributes":{
						"POSITION":0,
						"NORMAL":1,
						"TEXCOORD_0":2
					},
					"indices":3,
					"material":0
				}
			]
		}
	],
	"textures":[
		{
			"sampler":0,
			"source":0
		},
		{
			"sampler":0,
			"source":1
		},
		{
			"sampler":0,
			"source":2
		}
	],
	"images":[
		{
			"mimeType":"image/png",
			"name":"2k_earth_specular_map",
			"uri":"2k_earth_specular_map.png"
		},
		{
			"mimeType":"image/png",
			"name":"2k_earth_normal_map",
			"uri":"2k_earth_normal_map.png"
		},
		{
			"mimeType":"image/jpeg",
			"name":"2k_earth_clouds",
			"uri":"2k_earth_clouds.jpg"
		}
	],
	"accessors":[
		{
			"bufferView":0,
			"componentType":5126,
			"count":10490,
			"max":[
				1.002883791923523,
				0.9989817142486572,
				0.9964536428451538
			],
			"min":[
				-0.9905492067337036,
				-1.0006834268569946,
				-0.9969803094863892
			],
			"type":"VEC3"
		},
		{
			"bufferView":1,
			"componentType":5126,
			"count":10490,
			"type":"VEC3"
		},
		{
			"bufferView":2,
			"componentType":5126,
			"count":10490,
			"type":"VEC2"
		},
		{
			"bufferView":3,
			"componentType":5123,
			"count":59400,
			"type":"SCALAR"
		}
	],
	"bufferViews":[
		{
			"buffer":0,
			"byteLength":125880,
			"byteOffset":0,
			"target":34962
		},
		{
			"buffer":0,
			"byteLength":125880,
			"byteOffset":125880,
			"target":34962
		},
		{
			"buffer":0,
			"byteLength":83920,
			"byteOffset":251760,
			"target":34962
		},
		{
			"buffer":0,
			"byteLength":118800,
			"byteOffset":335680,
			"target":34963
		}
	],
	"samplers":[
		{
			"magFilter":9729,
			"minFilter":9987
		}
	],
	"buffers":[
		{
			"byteLength":454480,
			"uri":"Earth.bin"
		}
	]
}
