{
	"asset":{
		"generator":"Khronos glTF Blender I/O v5.1.20",
		"version":"2.0"
	},
	"extensionsUsed":[
		"KHR_materials_specular",
		"KHR_materials_ior"
	],
	"scene":0,
	"scenes":[
		{
			"name":"Scene",
			"nodes":[
				0
			]
		}
	],
	"nodes":[
		{
			"mesh":0,
			"name":"Mercury",
			"translation":[
				0,
				-3.4595110416412354,
				-3.111178398132324
			]
		}
	],
	"materials":[
		{
			"doubleSided":true,
			"extensions":{
				"KHR_materials_specular":{
					"specularTexture":{
						"index":0
					}
				},
				"KHR_materials_ior":{
					"ior":1.4500000476837158
				}
			},
			"name":"Mercury",
			"normalTexture":{
				"index":1
			},
			"pbrMetallicRoughness":{
				"baseColorTexture":{
					"index":2
				},
				"metallicFactor":0,
				"roughnessFactor":0.5
			}
		}
	],
	"meshes":[
		{
			"name":"Sphere.009",
			"primitives":[
				{
					"attributes":{
						"POSITION":0,
						"NORMAL":1,
						"TEXCOORD_0":2
					},
					"indices":3,
					"material":0
				}
			]
		}
	],
	"textures":[
		{
			"sampler":0,
			"source":0
		},
		{
			"sampler":0,
			"source":0
		},
		{
			"sampler":0,
			"source":0
		}
	],
	"images":[
		{
			"mimeType":"image/jpeg",
			"name":"2k_mercury",
			"uri":"2k_mercury.jpg"
		}
	],
	"accessors":[
		{
			"bufferView":0,
			"componentType":5126,
			"count":10482,
			"max":[
				0.9967162609100342,
				0.9998325705528259,
				0.9967181086540222
			],
			"min":[
				-0.9967167973518372,
				-0.9998325705528259,
				-0.9967158436775208
			],
			"type":"VEC3"
		},
		{
			"bufferView":1,
			"componentType":5126,
			"count":10482,
			"type":"VEC3"
		},
		{
			"bufferView":2,
			"componentType":5126,
			"count":10482,
			"type":"VEC2"
		},
		{
			"bufferView":3,
			"componentType":5123,
			"count":59400,
			"type":"SCALAR"
		}
	],
	"bufferViews":[
		{
			"buffer":0,
			"byteLength":125784,
			"byteOffset":0,
			"target":34962
		},
		{
			"buffer":0,
			"byteLength":125784,
			"byteOffset":125784,
			"target":34962
		},
		{
			"buffer":0,
			"byteLength":83856,
			"byteOffset":251568,
			"target":34962
		},
		{
			"buffer":0,
			"byteLength":118800,
			"byteOffset":335424,
			"target":34963
		}
	],
	"samplers":[
		{
			"magFilter":9729,
			"minFilter":9987
		}
	],
	"buffers":[
		{
			"byteLength":454224,
			"uri":"merculy.bin"
		}
	]
}
